<?xml version="1.0" encoding="UTF-8" standalone="no"?>
<svg
   width="100"
   height="100"
   focusable="false"
   viewBox="0 0 100 100"
   version="1.1"
   id="svg1"
   sodipodi:docname="at-fill.svg"
   inkscape:version="1.4.2 (ebf0e94, 2025-05-08)"
   inkscape:export-filename="at-fill.png"
   inkscape:export-xdpi="96"
   inkscape:export-ydpi="96"
   xmlns:inkscape="http://www.inkscape.org/namespaces/inkscape"
   xmlns:sodipodi="http://sodipodi.sourceforge.net/DTD/sodipodi-0.dtd"
   xmlns="http://www.w3.org/2000/svg"
   xmlns:svg="http://www.w3.org/2000/svg">
  <defs
     id="defs1" />
  <sodipodi:namedview
     id="namedview1"
     pagecolor="#505050"
     bordercolor="#eeeeee"
     borderopacity="1"
     inkscape:showpageshadow="0"
     inkscape:pageopacity="0"
     inkscape:pagecheckerboard="0"
     inkscape:deskcolor="#505050"
     inkscape:zoom="3.1322621"
     inkscape:cx="99.768152"
     inkscape:cy="51.240923"
     inkscape:window-width="1344"
     inkscape:window-height="769"
     inkscape:window-x="1912"
     inkscape:window-y="19"
     inkscape:window-maximized="1"
     inkscape:current-layer="svg1" />
  <rect
     style="opacity:1;fill:#ffffff;stroke:#ffffff;stroke-width:10;stroke-linejoin:round;paint-order:stroke fill markers;fill-opacity:1"
     id="rect1"
     width="119.08327"
     height="119.72179"
     x="-8.3007107"
     y="-9.8970003" />
  <path
     fill="none"
     stroke="currentColor"
     stroke-linecap="round"
     stroke-width="10.0613"
     d="M 65.0919,34.9081 V 50 50 A 15.0919,15.0919 0 0 1 50,65.0919 v 0 A 15.0919,15.0919 0 0 1 34.9081,50 v 0 A 15.0919,15.0919 0 0 1 50,34.9081 v 0 A 15.0919,15.0919 0 0 1 65.0919,50 v 0 5.030633 A 10.061267,10.061267 0 0 0 75.153167,65.0919 v 0 A 10.061267,10.061267 0 0 0 85.214433,55.030633 V 50 50 A 35.214433,35.214433 0 0 0 50,14.785567 v 0 A 35.214433,35.214433 0 0 0 14.785567,50 v 0 A 35.214433,35.214433 0 0 0 50,85.214433 h 14.085773"
     id="path1"
     style="fill:#ffffff;fill-opacity:1;stroke:#ef5e39;stroke-opacity:1" />
</svg>
