<?xml version="1.0" encoding="UTF-8" standalone="no"?>
<svg
   width="8.000123"
   height="10.002553"
   focusable="false"
   viewBox="0 0 8.000123 10.002553"
   version="1.1"
   id="svg1"
   sodipodi:docname="clock-cycle-fill.svg"
   inkscape:version="1.4.2 (ebf0e94, 2025-05-08)"
   xmlns:inkscape="http://www.inkscape.org/namespaces/inkscape"
   xmlns:sodipodi="http://sodipodi.sourceforge.net/DTD/sodipodi-0.dtd"
   xmlns="http://www.w3.org/2000/svg"
   xmlns:svg="http://www.w3.org/2000/svg">
  <defs
     id="defs1" />
  <sodipodi:namedview
     id="namedview1"
     pagecolor="#505050"
     bordercolor="#eeeeee"
     borderopacity="1"
     inkscape:showpageshadow="0"
     inkscape:pageopacity="0"
     inkscape:pagecheckerboard="0"
     inkscape:deskcolor="#505050"
     inkscape:zoom="35.4375"
     inkscape:cx="0"
     inkscape:cy="1.989418"
     inkscape:window-width="1920"
     inkscape:window-height="1009"
     inkscape:window-x="3592"
     inkscape:window-y="-8"
     inkscape:window-maximized="1"
     inkscape:current-layer="svg1" />
  <path
     d="m 5.0000614,0.5012763 a 0.5,0.5 0 0 1 0.788,-0.41 l 0.066,0.056 2,2 a 0.5,0.5 0 0 1 0.057,0.638 l -0.057,0.07 -2,2 a 0.5,0.5 0 0 1 -0.847,-0.268 l -0.007,-0.086 v -1.501 l -2.5,10e-4 a 1.5,1.5 0 0 0 -1.5,1.5 0.5,0.5 0 1 1 -1.000000044998,0 2.5,2.5 0 0 1 2.336000044998,-2.495 l 0.164,-0.005 2.5,-10e-4 z"
     id="path3" />
  <path
     d="m 7.5000614,5.0012763 a 0.5,0.5 0 0 1 0.5,0.5 2.5,2.5 0 0 1 -2.336,2.495 l -0.164,0.005 -2.5,-0.001 v 1.501 a 0.5,0.5 0 0 1 -0.788,0.41 l -0.066,-0.056 -2.00000004,-2 a 0.5,0.5 0 0 1 -0.057,-0.638 l 0.057,-0.07 2.00000004,-2 a 0.5,0.5 0 0 1 0.847,0.268 l 0.007,0.086 v 1.499 l 2.5,10e-4 a 1.5,1.5 0 0 0 1.5,-1.5 0.5,0.5 0 0 1 0.5,-0.5 z"
     id="path1" />
</svg>
