<?xml version="1.0" encoding="UTF-8" standalone="no"?>
<svg
   width="89.991989"
   height="100"
   focusable="false"
   viewBox="0 0 89.991992 99.999999"
   version="1.1"
   id="svg1"
   sodipodi:docname="Reassign Org.svg"
   xml:space="preserve"
   inkscape:version="1.4.2 (ebf0e94, 2025-05-08)"
   inkscape:export-filename="reassign mulitple projects.png"
   inkscape:export-xdpi="96"
   inkscape:export-ydpi="96"
   xmlns:inkscape="http://www.inkscape.org/namespaces/inkscape"
   xmlns:sodipodi="http://sodipodi.sourceforge.net/DTD/sodipodi-0.dtd"
   xmlns="http://www.w3.org/2000/svg"
   xmlns:svg="http://www.w3.org/2000/svg"><defs
     id="defs1" /><sodipodi:namedview
     id="namedview1"
     pagecolor="#505050"
     bordercolor="#eeeeee"
     borderopacity="1"
     inkscape:showpageshadow="0"
     inkscape:pageopacity="0"
     inkscape:pagecheckerboard="0"
     inkscape:deskcolor="#505050"
     inkscape:zoom="6.3046875"
     inkscape:cx="42.904585"
     inkscape:cy="41.477076"
     inkscape:window-width="1920"
     inkscape:window-height="1009"
     inkscape:window-x="3592"
     inkscape:window-y="-8"
     inkscape:window-maximized="1"
     inkscape:current-layer="svg1" /><rect
     style="opacity:1;fill:#ffffff;fill-opacity:1;stroke:none;stroke-width:2.9;stroke-linejoin:round;stroke-dasharray:none;stroke-opacity:1;paint-order:stroke fill markers"
     id="rect7"
     width="113.95021"
     height="117.76351"
     x="-10.094014"
     y="-6.9536548" /><path
     id="path15"
     style="fill:#009cb7;stroke-width:3.46743;fill-opacity:1"
     d="M 20.816406 15.082031 C 18.909321 15.082031 17.349609 16.643697 17.349609 18.550781 L 17.349609 67.09375 C 17.349609 69.000834 18.909321 70.5625 20.816406 70.5625 L 21.386719 70.5625 L 21.386719 23.486328 C 21.386719 21.579244 22.946431 20.017578 24.853516 20.017578 L 58.958984 20.015625 L 58.958984 18.550781 C 58.958984 16.643697 57.399273 15.082031 55.492188 15.082031 L 20.816406 15.082031 z M 27.658203 22.259766 C 25.751118 22.259766 24.191406 23.821432 24.191406 25.728516 L 24.191406 74.271484 C 24.191406 76.178568 25.751118 77.740234 27.658203 77.740234 L 44.699219 77.740234 C 44.698467 76.098216 44.712891 74.100727 44.712891 71.642578 L 44.710938 71.580078 L 44.710938 71.517578 C 44.711609 64.468859 50.259442 58.54451 57.292969 58.082031 L 57.367188 58.076172 L 65.800781 58.066406 L 65.800781 25.728516 C 65.800781 23.821432 64.241069 22.259766 62.333984 22.259766 L 27.658203 22.259766 z M 34.59375 32.662109 L 41.529297 32.662109 L 41.529297 39.597656 L 34.59375 39.597656 L 34.59375 32.662109 z M 48.462891 32.662109 L 55.398438 32.662109 L 55.398438 39.597656 L 48.462891 39.597656 L 48.462891 32.662109 z M 34.59375 46.533203 L 41.529297 46.533203 L 41.529297 53.466797 L 34.59375 53.466797 L 34.59375 46.533203 z M 48.462891 46.533203 L 55.398438 46.533203 L 55.398438 53.466797 L 48.462891 53.466797 L 48.462891 46.533203 z M 68.666016 55.59375 A 1.7692156 1.7692156 0 0 0 67.021484 57.363281 L 67.021484 62.664062 L 58.175781 62.671875 L 57.595703 62.691406 A 8.8460782 8.8460782 0 0 0 49.330078 71.517578 A 1.7692157 1.7692157 0 0 0 52.867188 71.517578 A 5.3076469 5.3076469 0 0 1 58.175781 66.208984 L 67.021484 66.203125 L 67.021484 71.517578 L 67.048828 71.822266 A 1.7692156 1.7692156 0 0 0 70.041016 72.767578 L 77.119141 65.691406 L 77.318359 65.443359 A 1.7692156 1.7692156 0 0 0 77.119141 63.189453 L 70.041016 56.113281 L 69.806641 55.912109 A 1.7692156 1.7692156 0 0 0 68.666016 55.59375 z M 58.238281 73.287109 A 1.7692156 1.7692156 0 0 0 56.923828 73.804688 L 49.847656 80.880859 L 49.646484 81.130859 A 1.7692156 1.7692156 0 0 0 49.847656 83.382812 L 56.923828 90.460938 L 57.160156 90.660156 A 1.7692156 1.7692156 0 0 0 59.945312 89.208984 L 59.945312 83.894531 L 68.791016 83.902344 L 69.371094 83.880859 A 8.8460782 8.8460782 0 0 0 77.636719 75.056641 A 1.7692156 1.7692156 0 0 0 75.867188 73.287109 A 1.7692156 1.7692156 0 0 0 74.097656 75.056641 A 5.3076469 5.3076469 0 0 1 68.791016 80.363281 L 59.945312 80.355469 L 59.945312 75.056641 L 59.916016 74.751953 A 1.7692156 1.7692156 0 0 0 58.238281 73.287109 z " /></svg>
