<?xml version="1.0" encoding="UTF-8" standalone="no"?>
<svg
   width="89.991989"
   height="100"
   focusable="false"
   viewBox="0 0 89.991992 99.999999"
   version="1.1"
   id="svg1"
   sodipodi:docname="reassign project.svg"
   xml:space="preserve"
   inkscape:version="1.4.2 (ebf0e94, 2025-05-08)"
   inkscape:export-filename="reassign project.png"
   inkscape:export-xdpi="96"
   inkscape:export-ydpi="96"
   xmlns:inkscape="http://www.inkscape.org/namespaces/inkscape"
   xmlns:sodipodi="http://sodipodi.sourceforge.net/DTD/sodipodi-0.dtd"
   xmlns="http://www.w3.org/2000/svg"
   xmlns:svg="http://www.w3.org/2000/svg"><defs
     id="defs1" /><sodipodi:namedview
     id="namedview1"
     pagecolor="#505050"
     bordercolor="#eeeeee"
     borderopacity="1"
     inkscape:showpageshadow="0"
     inkscape:pageopacity="0"
     inkscape:pagecheckerboard="0"
     inkscape:deskcolor="#505050"
     inkscape:zoom="4.4580873"
     inkscape:cx="76.378047"
     inkscape:cy="34.656118"
     inkscape:window-width="1920"
     inkscape:window-height="1009"
     inkscape:window-x="3592"
     inkscape:window-y="-8"
     inkscape:window-maximized="1"
     inkscape:current-layer="svg1" /><rect
     style="opacity:1;fill:#ffffff;fill-opacity:1;stroke:none;stroke-width:2.9;stroke-linejoin:round;stroke-dasharray:none;stroke-opacity:1;paint-order:stroke fill markers"
     id="rect7"
     width="113.95021"
     height="117.76351"
     x="-10.094014"
     y="-6.9536548" /><path
     id="path1"
     d="m 15.893779,13.729931 c -1.946137,0 -3.538431,1.592294 -3.538431,3.538431 V 66.8064 c 0,1.946137 1.592294,3.538431 3.538431,3.538431 h 28.30745 V 66.8064 c 0.0014,-7.312841 5.757799,-13.466491 13.054876,-13.946395 l 0.07604,-0.0071 0.746386,-0.0276 h 3.814854 v -0.165847 c -2.9e-5,-0.01097 -2.9e-5,-0.01663 0,-0.0276 v -19.44058 c 0,-0.990761 -0.778455,-1.769216 -1.769216,-1.769216 H 49.508876 c -2.936898,0 -5.307647,-2.370749 -5.307647,-5.307647 V 15.499146 c 0,-0.990761 -0.778455,-1.769215 -1.769215,-1.769215 z m 33.670385,0 c -0.920898,-0.023 -1.824504,0.69884 -1.824504,1.769215 v 8.846078 c 0,1.946138 1.592295,3.538432 3.538432,3.538432 h 8.846078 c 1.592294,0 2.369365,-1.90937 1.237067,-3.006283 L 50.745944,14.262079 c -0.342804,-0.353843 -0.763191,-0.521696 -1.18178,-0.532148 z m 19.101998,37.153528 a 1.7692156,1.7692156 0 0 0 -1.644815,1.769216 v 5.300736 l -8.846078,0.0071 -0.580525,0.02088 a 8.8460782,8.8460782 0 0 0 -8.265553,8.825036 1.7692157,1.7692157 0 0 0 3.538431,0 5.3076469,5.3076469 0 0 1 5.307647,-5.307647 l 8.846078,-0.0071 v 5.31472 l 0.0276,0.304092 a 1.7692156,1.7692156 0 0 0 2.992462,0.946807 l 7.076863,-7.076863 0.200416,-0.248787 A 1.7692156,1.7692156 0 0 0 77.118272,58.478663 L 70.041409,51.4018 69.806422,51.201383 a 1.7692156,1.7692156 0 0 0 -1.14026,-0.317924 z M 58.237468,68.575615 a 1.7692156,1.7692156 0 0 0 -1.313091,0.518324 l -7.076862,7.076862 -0.200417,0.248787 a 1.7692156,1.7692156 0 0 0 0.200417,2.252987 l 7.076862,7.076862 0.234987,0.200417 a 1.7692156,1.7692156 0 0 0 2.785121,-1.451298 v -5.314558 l 8.846078,0.0071 0.580522,-0.02088 a 8.8460782,8.8460782 0 0 0 8.265556,-8.825368 1.7692156,1.7692156 0 0 0 -1.769215,-1.769216 1.7692156,1.7692156 0 0 0 -1.769216,1.769216 5.3076469,5.3076469 0 0 1 -5.307647,5.307647 l -8.846078,-0.0071 v -5.30057 l -0.0276,-0.304093 a 1.7692156,1.7692156 0 0 0 -1.679417,-1.465123 z"
     style="stroke-width:3.53843;fill:#ef5e39;fill-opacity:0.93725491" /></svg>
