<?xml version="1.0" encoding="UTF-8" standalone="no"?>
<svg
   width="89.991989"
   height="100"
   focusable="false"
   viewBox="0 0 89.991992 99.999999"
   version="1.1"
   id="svg1"
   sodipodi:docname="reassign multiple projecs.svg"
   xml:space="preserve"
   inkscape:version="1.4.2 (ebf0e94, 2025-05-08)"
   inkscape:export-filename="reassign mulitple projects.png"
   inkscape:export-xdpi="96"
   inkscape:export-ydpi="96"
   xmlns:inkscape="http://www.inkscape.org/namespaces/inkscape"
   xmlns:sodipodi="http://sodipodi.sourceforge.net/DTD/sodipodi-0.dtd"
   xmlns="http://www.w3.org/2000/svg"
   xmlns:svg="http://www.w3.org/2000/svg"><defs
     id="defs1" /><sodipodi:namedview
     id="namedview1"
     pagecolor="#505050"
     bordercolor="#eeeeee"
     borderopacity="1"
     inkscape:showpageshadow="0"
     inkscape:pageopacity="0"
     inkscape:pagecheckerboard="0"
     inkscape:deskcolor="#505050"
     inkscape:zoom="12.609375"
     inkscape:cx="36.282528"
     inkscape:cy="28.669145"
     inkscape:window-width="1920"
     inkscape:window-height="1009"
     inkscape:window-x="3592"
     inkscape:window-y="-8"
     inkscape:window-maximized="1"
     inkscape:current-layer="svg1" /><rect
     style="opacity:1;fill:#ffffff;fill-opacity:1;stroke:none;stroke-width:2.9;stroke-linejoin:round;stroke-dasharray:none;stroke-opacity:1;paint-order:stroke fill markers"
     id="rect7"
     width="113.95021"
     height="117.76351"
     x="-10.094014"
     y="-6.9536548" /><path
     id="path10"
     style="fill:#f06845;fill-opacity:1;stroke-width:3.53843"
     d="M 8.0585938 6.6523438 C 6.1124566 6.6523438 4.5195313 8.2452691 4.5195312 10.191406 L 4.5195312 59.730469 C 4.5195312 61.676605 6.1124567 63.267578 8.0585938 63.267578 L 10.478516 63.267578 L 10.478516 15.748047 C 10.478516 13.700944 12.154069 12.027344 14.201172 12.027344 L 36.367188 12.027344 L 36.367188 8.421875 C 36.367188 7.431114 35.588416 6.6523437 34.597656 6.6523438 L 8.0585938 6.6523438 z M 15.894531 13.730469 C 13.948394 13.730469 12.355469 15.321441 12.355469 17.267578 L 12.355469 66.806641 C 12.355469 68.752778 13.948394 70.345703 15.894531 70.345703 L 44.201172 70.345703 L 44.201172 66.806641 C 44.202572 59.4938 49.958782 53.339279 57.255859 52.859375 L 57.332031 52.853516 L 58.078125 52.826172 L 61.892578 52.826172 L 61.892578 52.660156 C 61.892549 52.649186 61.892549 52.643783 61.892578 52.632812 L 61.892578 33.191406 C 61.892578 32.200645 61.115761 31.421875 60.125 31.421875 L 49.509766 31.421875 C 46.572868 31.421875 44.201172 29.052132 44.201172 26.115234 L 44.201172 15.5 C 44.201172 14.509239 43.422401 13.730469 42.431641 13.730469 L 15.894531 13.730469 z " /><path
     style="stroke-width:3.53843;fill:#ef5e39;fill-opacity:0.93725491"
     d="m 58.237468,68.575615 a 1.7692156,1.7692156 0 0 0 -1.313091,0.518324 l -7.076862,7.076862 -0.200417,0.248787 a 1.7692156,1.7692156 0 0 0 0.200417,2.252987 l 7.076862,7.076862 0.234987,0.200417 a 1.7692156,1.7692156 0 0 0 2.785121,-1.451298 v -5.314558 l 8.846078,0.0071 0.580522,-0.02088 a 8.8460782,8.8460782 0 0 0 8.265556,-8.825368 1.7692156,1.7692156 0 0 0 -1.769215,-1.769216 1.7692156,1.7692156 0 0 0 -1.769216,1.769216 5.3076469,5.3076469 0 0 1 -5.307647,5.307647 l -8.846078,-0.0071 v -5.30057 l -0.0276,-0.304093 a 1.7692156,1.7692156 0 0 0 -1.679417,-1.465123 z"
     id="path9" /><path
     style="stroke-width:3.53843;fill:#ef5e39;fill-opacity:0.93725491"
     d="m 68.666162,50.883459 a 1.7692156,1.7692156 0 0 0 -1.644815,1.769216 v 5.300736 l -8.846078,0.0071 -0.580525,0.02088 a 8.8460782,8.8460782 0 0 0 -8.265553,8.825036 1.7692157,1.7692157 0 0 0 3.538431,0 5.3076469,5.3076469 0 0 1 5.307647,-5.307647 l 8.846078,-0.0071 v 5.31472 l 0.0276,0.304092 a 1.7692156,1.7692156 0 0 0 2.992462,0.946807 l 7.076863,-7.076863 0.200416,-0.248787 A 1.7692156,1.7692156 0 0 0 77.118272,58.478663 L 70.041409,51.4018 69.806422,51.201383 a 1.7692156,1.7692156 0 0 0 -1.14026,-0.317924 z"
     id="path8" /><path
     style="stroke-width:3.53843;fill:#ef5e39;fill-opacity:0.93725491"
     d="m 49.564164,13.729931 c -0.920898,-0.023 -1.824504,0.69884 -1.824504,1.769215 v 8.846078 c 0,1.946138 1.592295,3.538432 3.538432,3.538432 h 8.846078 c 1.592294,0 2.369365,-1.90937 1.237067,-3.006283 L 50.745944,14.262079 c -0.342804,-0.353843 -0.763191,-0.521696 -1.18178,-0.532148 z"
     id="path7" /></svg>
